HIERARCHY
ROOT hip
{
	OFFSET 0.00000 0.00000 0.00000
	CHANNELS 6 Xposition Yposition Zposition Zrotation Yrotation Xrotation 
	JOINT lhipjoint
	{
		OFFSET 0 0 0
		CHANNELS 3 Zrotation Yrotation Xrotation
		JOINT lfemur
		{
			OFFSET 1.57369 -1.71772 0.78318
			CHANNELS 3 Zrotation Yrotation Xrotation
			JOINT ltibia
			{
				OFFSET 2.43837 -6.69936 0.00000
				CHANNELS 3 Zrotation Yrotation Xrotation
				JOINT lfoot
				{
					OFFSET 2.44611 -6.72017 0.00000
					CHANNELS 3 Zrotation Yrotation Xrotation
					JOINT ltoes
					{
						OFFSET 0.23215 -0.63782 2.27431
						CHANNELS 3 Zrotation Yrotation Xrotation
						End Site
						{
							OFFSET 0.00000 -0.00000 1.18367
						}
					}
				}
			}
		}
	}
	JOINT rhipjoint
	{
		OFFSET 0 0 0
		CHANNELS 3 Zrotation Yrotation Xrotation
		JOINT rfemur
		{
			OFFSET -1.86522 -1.71771 0.78318
			CHANNELS 3 Zrotation Yrotation Xrotation
			JOINT rtibia
			{
				OFFSET -2.40267 -6.60130 0.00000
				CHANNELS 3 Zrotation Yrotation Xrotation
				JOINT rfoot
				{
					OFFSET -2.37935 -6.53502 0.00000
					CHANNELS 3 Zrotation Yrotation Xrotation
					JOINT rtoes
					{
						OFFSET -0.27597 -0.75823 2.47571
						CHANNELS 3 Zrotation Yrotation Xrotation
						End Site
						{
							OFFSET -0.00000 -0.00000 1.29303
						}
					}
				}
			}
		}
	}
	JOINT lowerback
	{
		OFFSET 0 0 0
		CHANNELS 3 Zrotation Yrotation Xrotation
		JOINT upperback
		{
			OFFSET -0.02101 1.92979 -0.01947
			CHANNELS 3 Zrotation Yrotation Xrotation
			JOINT thorax
			{
				OFFSET 0.01475 1.93352 -0.01119
				CHANNELS 3 Zrotation Yrotation Xrotation
				JOINT lowerneck
				{
					OFFSET 0 0 0
					CHANNELS 3 Zrotation Yrotation Xrotation
					JOINT upperneck
					{
						OFFSET 0.00502 1.65705 0.17258
						CHANNELS 3 Zrotation Yrotation Xrotation
						JOINT head
						{
							OFFSET 0.02905 1.66015 -0.26908
							CHANNELS 3 Zrotation Yrotation Xrotation
							End Site
							{
								OFFSET 0.00808 1.68998 -0.11043
							}
						}
					}
				}
				JOINT lclavicle
				{
					OFFSET 0 0 0
					CHANNELS 3 Zrotation Yrotation Xrotation
					JOINT lhumerus
					{
						OFFSET 3.43622 1.20746 -0.28777
						CHANNELS 3 Zrotation Yrotation Xrotation
						JOINT lradius
						{
							OFFSET 5.40197 -0.00000 -0.00000
							CHANNELS 3 Zrotation Yrotation Xrotation
							JOINT lwrist
							{
								OFFSET 3.00736 -0.00000 -0.00000
								CHANNELS 3 Zrotation Yrotation Xrotation
								JOINT lhand
								{
									OFFSET 0 0 0
									CHANNELS 3 Zrotation Yrotation Xrotation
									JOINT lfingers
									{
										OFFSET 0.77573 -0.00000 -0.00000
										CHANNELS 3 Zrotation Yrotation Xrotation
										End Site
										{
											OFFSET 0.62542 -0.00000 -0.00000
										}
									}
								}
								JOINT lthumb
								{
									OFFSET 0 0 0
									CHANNELS 3 Zrotation Yrotation Xrotation
									End Site
									{
										OFFSET 0.63496 -0.00000 0.63496
									}
								}
							}
						}
					}
				}
				JOINT rclavicle
				{
					OFFSET 0 0 0
					CHANNELS 3 Zrotation Yrotation Xrotation
					JOINT rhumerus
					{
						OFFSET -3.23184 1.05007 -0.30054
						CHANNELS 3 Zrotation Yrotation Xrotation
						JOINT rradius
						{
							OFFSET -5.23149 -0.00000 -0.00000
							CHANNELS 3 Zrotation Yrotation Xrotation
							JOINT rwrist
							{
								OFFSET -3.03370 -0.00000 -0.00000
								CHANNELS 3 Zrotation Yrotation Xrotation
								JOINT rhand
								{
									OFFSET 0 0 0
									CHANNELS 3 Zrotation Yrotation Xrotation
									JOINT rfingers
									{
										OFFSET -0.77918 -0.00000 -0.00000
										CHANNELS 3 Zrotation Yrotation Xrotation
										End Site
										{
											OFFSET -0.62820 -0.00000 -0.00000
										}
									}
								}
								JOINT rthumb
								{
									OFFSET 0 0 0
									CHANNELS 3 Zrotation Yrotation Xrotation
									End Site
									{
										OFFSET -0.63779 -0.00000 0.63779
									}
								}
							}
						}
					}
				}
			}
		}
	}
}
MOTION
Frames: 14
Frame Time: 0.033333
3.3395 16.5028 -2.9335 -106.7230 -92.1661 112.3330 0.0000 -0.0000 0.0000 -24.6431 -17.2394 -17.6936 1.6611 8.1212 23.0828 0.1460 1.1005 -7.7084 0.0041 -0.4132 -1.1355 0.0000 -0.0000 0.0000 23.0203 0.5006 -1.4566 -4.4572 -12.7451 38.4217 -0.1938 -1.2409 -8.8639 -1.7518 8.3288 -23.7174 -1.3276 1.2117 0.3737 -0.1882 1.6127 0.6426 0.5504 0.7998 0.4170 -0.7213 -1.0396 -18.2641 1.8250 -1.6859 17.8670 0.5198 -0.6706 8.6090 0.0000 -0.0000 0.0000 -91.5668 0.4004 20.8860 8.8225 -14.8772 -1.1541 -0.0000 -0.0000 20.3495 24.3996 1.5844 0.7186 -7.1250 0.0000 -0.0000 -1.7463 31.7165 0.5677 0.0000 -0.0000 0.0000 85.0940 -1.1316 25.2099 -11.4556 18.9832 -1.9215 0.0000 0.0000 29.6050 -23.5857 1.8086 -0.7894 7.1250 -0.0000 -0.0000 2.3138 -28.0039 0.9572
3.3427 16.5158 -2.9160 -101.1250 -92.6161 106.8060 0.0000 -0.0000 0.0000 -25.4013 -16.9754 -16.9184 1.5474 7.8518 22.2648 0.1436 1.2123 -7.7092 0.0059 -0.4953 -1.3610 0.0000 -0.0000 0.0000 21.9789 0.5158 -3.4300 -5.1940 -13.5990 41.6544 -0.1061 -0.9680 -6.5862 -1.4522 7.6171 -21.5571 -1.8302 1.1563 0.3910 -0.2756 1.5376 0.6342 0.7418 0.7602 0.3894 -0.6988 -0.9525 -18.3175 1.7285 -1.5503 17.8640 0.5005 -0.6149 8.6144 -0.0000 -0.0000 0.0000 -91.6043 0.3520 21.1016 8.9061 -15.0106 -1.1757 -0.0000 -0.0000 20.1630 24.2946 1.6141 0.7285 -7.1250 0.0000 -0.0000 -1.8315 31.7473 0.5941 -0.0000 -0.0000 0.0000 84.9341 -1.1532 25.2466 -11.4992 19.0494 -1.9357 0.0000 0.0000 29.8381 -23.6284 1.8091 -0.7913 7.1250 -0.0000 -0.0000 2.2808 -28.0028 0.9436
3.3469 16.5316 -2.8990 -96.8007 -92.9684 102.4760 0.0000 -0.0000 0.0000 -26.0546 -16.5554 -16.0595 1.4229 7.5433 21.3352 0.1420 1.2634 -7.6973 0.0061 -0.5028 -1.3817 0.0000 -0.0000 0.0000 21.1107 0.5791 -5.3253 -5.9717 -14.4008 44.8678 -0.0427 -0.8282 -4.3021 -1.3398 7.3288 -20.6933 -2.2577 1.0880 0.5452 -0.3026 1.4407 0.6089 0.9499 0.7111 0.2700 -0.6636 -0.8253 -18.2845 1.5846 -1.3521 17.8105 0.4712 -0.5348 8.5862 0.0000 -0.0000 0.0000 -91.6231 0.3819 21.6158 9.0087 -15.1743 -1.2024 -0.0000 -0.0000 19.6626 24.3091 1.6204 0.7318 -7.1250 0.0000 -0.0000 -1.8200 31.7545 0.5900 0.0000 -0.0000 0.0000 84.7380 -1.2242 25.5087 -11.5902 19.1872 -1.9655 0.0000 0.0000 29.4810 -23.6518 1.8619 -0.8152 7.1250 -0.0000 -0.0000 2.2620 -27.9449 0.9389
3.3498 16.5461 -2.8819 -92.2238 -93.3393 97.7951 0.0000 -0.0000 0.0000 -26.7401 -16.0150 -15.0700 1.2947 7.2094 20.3372 0.1377 1.3007 -7.6130 0.0058 -0.4934 -1.3557 0.0000 -0.0000 0.0000 20.2101 0.7007 -7.0641 -6.7679 -15.1333 47.9908 -0.0076 -0.7316 -2.0894 -1.0908 6.6374 -18.6454 -2.6091 1.0669 0.7034 -0.3872 1.4063 0.6717 1.0576 0.6919 0.2407 -0.6059 -0.7301 -18.2810 1.4573 -1.2055 17.6963 0.4372 -0.4752 8.5437 -0.0000 0.0000 0.0000 -91.5710 0.3231 22.0692 9.1552 -15.4075 -1.2410 -0.0000 -0.0000 19.1715 24.1900 1.5723 0.7061 -7.1250 0.0000 -0.0000 -1.9140 31.6997 0.6230 -0.0000 0.0000 0.0000 84.6440 -1.2010 25.6776 -11.6904 19.3387 -1.9986 0.0000 0.0000 29.0335 -23.8441 1.8633 -0.8233 7.1250 -0.0000 -0.0000 2.1135 -27.9407 0.8774
3.3548 16.5590 -2.8650 -88.2299 -93.8479 93.6079 0.0000 -0.0000 0.0000 -27.5737 -15.4291 -14.0065 1.1734 6.8757 19.3478 0.1335 1.3612 -7.5417 0.0072 -0.5481 -1.5060 0.0000 -0.0000 0.0000 19.1812 0.7614 -8.7398 -7.5644 -15.7893 50.9779 0.0013 -0.6830 -0.5335 -0.9624 6.2464 -17.5009 -3.0534 1.0610 0.9401 -0.5144 1.3872 0.7781 1.1724 0.6791 0.2107 -0.5281 -0.6456 -18.2686 1.3085 -1.0736 17.5312 0.3908 -0.4232 8.4826 0.0000 -0.0000 0.0000 -91.4914 0.1746 22.5248 9.2124 -15.4983 -1.2563 -0.0000 -0.0000 18.8786 24.2798 1.6174 0.7294 -7.1250 0.0000 -0.0000 -1.8435 31.7506 0.5978 0.0000 -0.0000 0.0000 84.5769 -1.1406 25.7456 -11.7658 19.4524 -2.0236 0.0000 0.0000 29.0904 -24.2160 1.7877 -0.8038 7.1250 -0.0000 -0.0000 1.8267 -28.0181 0.7549
3.3638 16.5699 -2.8461 -85.7459 -94.2420 90.8955 0.0000 -0.0000 0.0000 -28.2659 -14.8592 -12.9661 1.0661 6.5641 18.4303 0.1311 1.3928 -7.4988 0.0056 -0.4825 -1.3257 0.0000 -0.0000 0.0000 18.3109 0.8051 -10.3401 -8.3384 -16.3626 53.7726 0.0041 -1.1459 -0.2983 -0.9804 6.3029 -17.6659 -3.3010 1.0261 1.2241 -0.6147 1.3273 0.8995 1.2047 0.6465 0.1754 -0.5108 -0.5453 -18.2196 1.2118 -0.9147 17.3390 0.3753 -0.3572 8.4065 -0.0000 -0.0000 0.0000 -91.3930 -0.0118 22.9971 9.2797 -15.6051 -1.2743 -0.0000 -0.0000 18.4392 24.4231 1.5409 0.6996 -7.1250 0.0000 -0.0000 -1.7262 31.6691 0.5631 -0.0000 -0.0000 0.0000 84.5658 -1.0047 25.6837 -11.8103 19.5196 -2.0385 0.0000 0.0000 28.9151 -24.6453 1.8150 -0.8325 7.1250 -0.0000 -0.0000 1.4947 -27.9819 0.6189
3.3785 16.5754 -2.8321 -84.6250 -94.4815 89.4511 0.0000 -0.0000 0.0000 -28.7780 -14.2089 -11.9193 0.9723 6.2774 17.5915 0.1283 1.2940 -7.3709 0.0075 -0.5611 -1.5417 0.0000 -0.0000 0.0000 17.7134 0.7772 -11.7474 -9.0716 -16.8536 56.3375 0.0111 -1.8758 -0.8396 -1.0047 6.3782 -17.8857 -3.4239 0.9754 1.6601 -0.6527 1.2401 1.0272 1.2290 0.6016 0.0644 -0.5071 -0.4492 -18.1081 1.1008 -0.7554 17.1185 0.3572 -0.2935 8.3104 0.0000 -0.0000 0.0000 -91.2979 -0.2193 23.3754 9.3075 -15.6491 -1.2818 -0.0000 -0.0000 18.2688 24.5162 1.6221 0.7397 -7.1250 0.0000 -0.0000 -1.6540 31.7598 0.5359 0.0000 -0.0000 0.0000 84.5975 -0.8676 25.3259 -11.8486 19.5772 -2.0513 0.0000 0.0000 29.0985 -25.0402 1.9398 -0.9060 7.1250 -0.0000 -0.0000 1.1895 -27.8383 0.4965
3.3950 16.5805 -2.8137 -83.3399 -94.6900 87.8606 0.0000 -0.0000 0.0000 -29.2577 -13.6931 -10.9237 0.8991 6.0431 16.9095 0.1323 1.3061 -7.4790 0.0132 -0.7421 -2.0393 0.0000 -0.0000 0.0000 17.1332 0.6523 -13.1821 -9.7524 -17.2683 58.6576 0.0233 -2.7912 -1.7435 -1.0197 6.4243 -18.0207 -3.4060 0.9359 2.0653 -0.7141 1.1703 1.1624 1.1519 0.5654 -0.0191 -0.5087 -0.3536 -17.9987 1.0014 -0.5989 16.9098 0.3434 -0.2299 8.2191 0.0000 0.0000 0.0000 -91.1849 -0.5390 23.5215 9.2534 -15.5633 -1.2672 -0.0000 -0.0000 18.4669 24.6929 1.6107 0.7404 -7.1250 0.0000 -0.0000 -1.5119 31.7502 0.4902 0.0000 0.0000 0.0000 84.6567 -0.6818 25.2362 -11.8802 19.6248 -2.0619 0.0000 0.0000 28.6550 -25.5117 1.8197 -0.8682 7.1250 -0.0000 -0.0000 0.8251 -27.9634 0.3419
3.4119 16.5873 -2.7960 -82.7306 -94.8027 86.9790 0.0000 -0.0000 0.0000 -29.6008 -13.3206 -10.0240 0.8439 5.8596 16.3776 0.1376 1.3611 -7.6437 0.0119 -0.7051 -1.9378 0.0000 -0.0000 0.0000 16.7032 0.5287 -14.5990 -10.3596 -17.6071 60.6835 0.0397 -3.8364 -2.9942 -0.8985 6.0411 -16.9037 -3.2724 0.8699 2.3714 -0.7399 1.0727 1.3114 1.0496 0.5148 -0.0304 -0.5754 -0.2688 -17.8643 0.9126 -0.4433 16.7141 0.3434 -0.1698 8.1284 0.0000 -0.0000 0.0000 -91.0673 -0.8917 23.8933 9.2208 -15.5115 -1.2585 -0.0000 -0.0000 18.2429 24.8604 1.5220 0.7051 -7.1250 0.0000 -0.0000 -1.3752 31.6553 0.4490 0.0000 -0.0000 0.0000 84.7021 -0.4502 25.0130 -11.8832 19.6292 -2.0629 0.0000 0.0000 28.6158 -25.8917 1.6804 -0.8155 7.1250 -0.0000 -0.0000 0.5306 -28.1118 0.2180
3.4289 16.5951 -2.7765 -81.6889 -94.8686 85.6602 0.0000 -0.0000 0.0000 -29.8886 -13.0233 -9.1335 0.7990 5.7052 15.9315 0.1433 1.4923 -7.8602 0.0134 -0.7488 -2.0580 0.0000 -0.0000 0.0000 16.3544 0.4466 -15.9575 -10.8848 -17.8782 62.4068 0.0648 -4.9576 -4.0017 -0.8122 5.7510 -16.0637 -3.0764 0.7797 2.6748 -0.7254 0.9453 1.4485 0.9549 0.4500 -0.0515 -0.6255 -0.1489 -17.7300 0.7205 -0.2253 16.5777 0.3136 -0.0896 8.0572 0.0000 -0.0000 0.0000 -91.0557 -1.2486 23.7041 9.1378 -15.3797 -1.2364 -0.0000 -0.0000 18.7182 25.1165 1.5710 0.7363 -7.1250 0.0000 -0.0000 -1.1710 31.7134 0.3807 0.0000 -0.0000 0.0000 84.6998 -0.2234 24.8768 -11.8949 19.6469 -2.0668 0.0000 0.0000 28.3807 -26.2548 1.6253 -0.8015 7.1250 -0.0000 -0.0000 0.2492 -28.1676 0.1020
3.4464 16.6012 -2.7583 -81.1056 -94.7546 84.8290 0.0000 -0.0000 0.0000 -29.9683 -12.7676 -8.3406 0.7670 5.5923 15.6060 0.1555 1.5286 -8.1733 0.0102 -0.6513 -1.7898 0.0000 -0.0000 0.0000 16.2507 0.3819 -17.2692 -11.3080 -18.0826 63.7779 0.0890 -5.8847 -4.9121 -0.7418 5.5018 -15.3456 -2.6775 0.7013 2.9514 -0.6879 0.8414 1.5738 0.7706 0.3985 -0.0689 -0.6303 -0.0642 -17.6592 0.5221 -0.0678 16.5159 0.2669 -0.0357 8.0229 -0.0000 0.0000 0.0000 -90.9787 -1.6587 23.6590 9.0563 -15.2501 -1.2149 -0.0000 -0.0000 18.8952 25.1709 1.6546 0.7774 -7.1250 0.0000 -0.0000 -1.1294 31.8066 0.3646 -0.0000 0.0000 0.0000 84.7545 -0.0474 24.6171 -11.9418 19.7172 -2.0826 0.0000 0.0000 28.1353 -26.5063 1.6918 -0.8436 7.1250 -0.0000 -0.0000 0.0552 -28.0893 0.0227
3.4629 16.6076 -2.7419 -79.7585 -94.6541 83.2709 0.0000 -0.0000 0.0000 -30.0299 -12.5588 -7.6301 0.7470 5.5208 15.4001 0.1711 1.5941 -8.5670 0.0061 -0.5054 -1.3888 0.0000 -0.0000 0.0000 16.1720 0.4961 -18.4971 -11.6371 -18.2330 64.8338 0.1161 -6.8411 -5.9425 -0.6099 4.9986 -13.9046 -2.3407 0.6531 3.1069 -0.6240 0.7821 1.7202 0.6485 0.3680 -0.0006 -0.6426 0.0173 -17.5619 0.3171 0.0879 16.4425 0.2190 0.0164 7.9805 0.0000 -0.0000 0.0000 -90.9835 -2.1218 23.3308 8.9235 -15.0385 -1.1802 -0.0000 -0.0000 19.7806 25.3365 1.5902 0.7528 -7.1250 0.0000 -0.0000 -0.9949 31.7382 0.3228 0.0000 -0.0000 0.0000 84.7710 0.1721 24.3357 -11.9682 19.7570 -2.0915 0.0000 0.0000 27.9758 -26.8348 1.7063 -0.8630 7.1250 -0.0000 -0.0000 -0.1988 -28.0676 -0.0819
3.4801 16.6127 -2.7253 -79.1142 -94.4956 82.4843 0.0000 -0.0000 0.0000 -30.0228 -12.4135 -7.0246 0.7319 5.4658 15.2419 0.1794 1.6382 -8.7756 0.0085 -0.5965 -1.6390 0.0000 -0.0000 0.0000 16.1793 0.5980 -19.7190 -11.8690 -18.3347 65.5729 0.1384 -7.6653 -6.9891 -0.5503 4.7522 -13.2031 -1.9583 0.5768 3.2350 -0.5272 0.6881 1.8123 0.5357 0.3219 0.0279 -0.7012 0.0882 -17.4597 0.1348 0.2348 16.4536 0.1851 0.0631 7.9659 0.0000 -0.0000 0.0000 -91.0064 -2.5407 23.2681 8.8666 -14.9476 -1.1655 -0.0000 -0.0000 19.7814 25.3734 1.6728 0.7932 -7.1250 0.0000 -0.0000 -0.9672 31.8301 0.3117 0.0000 -0.0000 0.0000 84.7267 0.3134 24.2327 -12.0034 19.8097 -2.1034 0.0000 0.0000 27.6033 -26.9282 1.7330 -0.8801 7.1250 -0.0000 -0.0000 -0.2707 -28.0360 -0.1117
3.4975 16.6139 -2.7136 -77.7937 -94.3606 81.0886 0.0000 -0.0000 0.0000 -29.9970 -12.3116 -6.5164 0.7222 5.4302 15.1399 0.1946 1.7091 -9.1412 0.0132 -0.7430 -2.0420 0.0000 -0.0000 0.0000 16.2271 0.9049 -20.8635 -12.0205 -18.3993 66.0537 0.1429 -8.2840 -8.2384 -0.5048 4.5546 -12.6426 -1.6933 0.5250 3.2976 -0.3925 0.6259 1.8711 0.5271 0.2915 0.0558 -0.7734 0.1463 -17.4370 -0.0709 0.3719 16.5894 0.1447 0.1008 8.0071 0.0000 0.0000 0.0000 -91.0985 -2.9399 23.0129 8.7885 -14.8226 -1.1454 -0.0000 -0.0000 20.1805 25.5321 1.7430 0.8324 -7.1250 0.0000 -0.0000 -0.8413 31.9105 0.2695 0.0000 0.0000 0.0000 84.6274 0.4084 24.1900 -12.0739 19.9154 -2.1274 0.0000 0.0000 27.1752 -26.9506 1.6689 -0.8484 7.1250 -0.0000 -0.0000 -0.2889 -28.1076 -0.1187
